<svg xmlns="http://www.w3.org/2000/svg" version="1.1" xmlns:xlink="http://www.w3.org/1999/xlink" xmlns:svgjs="http://svgjs.dev/svgjs" width="1440" height="560" preserveAspectRatio="none" viewBox="0 0 1440 560"><g mask="url(&quot;#SvgjsMask2465&quot;)" fill="none"><use xlink:href="#SvgjsG2476" transform="translate(0, 0)" fill="rgba(160, 181, 223, 0.2)"></use><use xlink:href="#SvgjsG2476" transform="translate(0, 448.00000000000006)" fill="rgba(160, 181, 223, 0.2)"></use><use xlink:href="#SvgjsG2476" transform="translate(448.00000000000006, 0)" fill="rgba(160, 181, 223, 0.2)"></use><use xlink:href="#SvgjsG2476" transform="translate(448.00000000000006, 448.00000000000006)" fill="rgba(160, 181, 223, 0.2)"></use><use xlink:href="#SvgjsG2476" transform="translate(896.0000000000001, 0)" fill="rgba(160, 181, 223, 0.2)"></use><use xlink:href="#SvgjsG2476" transform="translate(896.0000000000001, 448.00000000000006)" fill="rgba(160, 181, 223, 0.2)"></use><use xlink:href="#SvgjsG2476" transform="translate(1344.0000000000002, 0)" fill="rgba(160, 181, 223, 0.2)"></use><use xlink:href="#SvgjsG2476" transform="translate(1344.0000000000002, 448.00000000000006)" fill="rgba(160, 181, 223, 0.2)"></use></g><defs><mask id="SvgjsMask2465"><rect width="1440" height="560" fill="#ffffff"></rect></mask><g id="SvgjsG2468"><path d="M7.713 15.485C3.459 15.485 0 12.025 0 7.768 0 3.513 3.459 0.051 7.713 0.051S15.432 3.513 15.432 7.768c0 4.257-3.465 7.716-7.719 7.717z m0-1.91c3.201 0 5.81-2.604 5.81-5.809 0-3.199-2.61-5.807-5.81-5.807-3.202 0-5.804 2.609-5.804 5.807-0.001 3.206 2.602 5.809 5.804 5.809z"></path><path d="M7.753 8.787a0.574 0.574 0 0 1-0.554-0.042 0.578 0.578 0 0 1-0.259-0.399L6.931 3.862a0.58 0.58 0 0 1 1.162 0v3.478l2.975-1.4a0.578 0.578 0 0 1 0.773 0.275c0.138 0.292 0.011 0.637-0.276 0.774l-3.81 1.798z"></path></g><g id="SvgjsG2474"><path d="M15.233 9.431c0.295 0 0.569-0.239 0.61-0.532 0 0 0.056-0.411 0.056-0.899s-0.056-0.899-0.056-0.899c-0.041-0.292-0.315-0.531-0.61-0.53h-1.524c-0.295 0-0.602-0.188-0.681-0.418s-0.188-0.967 0.021-1.176l1.078-1.077c0.209-0.209 0.225-0.565 0.036-0.792l-1.268-1.268c-0.227-0.189-0.583-0.173-0.792 0.036l-1.078 1.077c-0.208 0.209-0.556 0.293-0.772 0.187s-0.822-0.552-0.821-0.847V0.767c0-0.295-0.239-0.569-0.531-0.61 0 0-0.411-0.057-0.9-0.056s-0.899 0.057-0.899 0.056c-0.293 0.04-0.532 0.315-0.532 0.61v1.524c0 0.295-0.188 0.601-0.418 0.681s-0.967 0.188-1.176-0.021l-1.078-1.078C3.689 1.665 3.333 1.649 3.107 1.837l-1.268 1.268c-0.189 0.227-0.173 0.583 0.036 0.792l1.077 1.078c0.209 0.209 0.293 0.556 0.187 0.772s-0.552 0.822-0.847 0.822H0.767c-0.295 0-0.569 0.239-0.61 0.531 0 0-0.057 0.411-0.056 0.899s0.057 0.899 0.056 0.9c0.04 0.293 0.315 0.532 0.61 0.532h1.525c0.295 0 0.601 0.188 0.681 0.417 0.079 0.23 0.188 0.967-0.02 1.176l-1.078 1.077C1.667 12.311 1.651 12.667 1.84 12.893l1.267 1.268c0.227 0.189 0.583 0.173 0.792-0.036l1.077-1.077c0.209-0.208 0.556-0.292 0.772-0.187s0.821 0.553 0.822 0.848v1.524c0 0.295 0.239 0.569 0.532 0.61 0 0 0.411 0.057 0.899 0.057s0.899-0.056 0.899-0.057c0.293-0.04 0.531-0.315 0.532-0.609v-1.524c0-0.295 0.188-0.602 0.418-0.681 0.23-0.079 0.967-0.188 1.176 0.021l1.077 1.077c0.209 0.209 0.565 0.225 0.792 0.036l1.268-1.267c0.189-0.227 0.173-0.583-0.036-0.792l-1.078-1.077c-0.209-0.209-0.293-0.557-0.186-0.773 0.106-0.216 0.552-0.822 0.847-0.822h1.525zM8 10.892c-1.597 0-2.891-1.294-2.891-2.892 0-1.596 1.295-2.891 2.891-2.891S10.892 6.404 10.892 8 9.597 10.892 8 10.892z"></path></g><g id="SvgjsG2466"><path d="M8.312 8.242l0 0.521c0.492-0.069 0.443-0.509 0-0.52v-0.001z m-0.51-0.627V7.155c-0.365 0.064-0.358 0.454 0 0.46z"></path><path d="M8.055 5.946c-1.128 0-2.044 0.915-2.044 2.043 0 1.129 0.915 2.044 2.045 2.044 1.129 0 2.043-0.915 2.043-2.044 0-1.128-0.915-2.043-2.043-2.043l-0.001 0z m0.251 3.336v0.364h-0.507v-0.37c-0.29-0.043-0.822-0.323-0.855-0.924h0.534c0.034 0.154 0.078 0.34 0.321 0.409l-0.001-0.605c-0.334-0.048-0.814-0.194-0.814-0.73 0-0.602 0.666-0.789 0.813-0.789v-0.364h0.502v0.364c0.338 0.02 0.83 0.302 0.829 0.84h-0.528c-0.014-0.16-0.137-0.317-0.296-0.327v0.554c0.403 0.041 0.877 0.195 0.877 0.738 0 0.473-0.475 0.818-0.877 0.84h0.002z"></path><path d="M0 11.93h16V4H0v7.93z m1.508-1.508V5.508h12.984V10.422H1.508z"></path></g><g id="SvgjsG2475"><path d="M6.99 1.997c0.208-0.693-0.181-1.425-0.876-1.637-0.691-0.214-1.425 0.174-1.638 0.87-0.212 0.695 0.181 1.427 0.872 1.638 0.695 0.214 1.429-0.177 1.642-0.871"></path><path d="M9.447 6.033l-0.497-3.072L11.99 1.183c0.144-0.08 0.257-0.21 0.305-0.374A0.634 0.634 0 0 0 11.869 0.026a0.63 0.63 0 0 0-0.51 0.07L7.025 2.64c-0.152 0.08-0.284 0.193-0.397 0.325l-1.827 2.453-2.517-0.3a0.629 0.629 0 0 0-0.37 0.341 0.626 0.626 0 0 0 0.325 0.827 0.596 0.596 0 0 0 0.411 0.033l2.562 0.291a0.645 0.645 0 0 0 0.245-0.168l1.04-1.306 0.497 2.819A1.407 1.407 0 0 0 7.728 8.89l2.234 0.666 0.329 2.566a0.82 0.82 0 0 0 0.535 0.651c0.426 0.152 0.892-0.074 1.041-0.5 0.047-0.127 0.055-0.267 0.036-0.397l-0.403-3.139a0.829 0.829 0 0 0-0.405-0.555l-1.39-0.418 2.301-1.393L14.818 7.616c0.018 0.008 0.035 0.016 0.051 0.024 0.426 0.148 0.892-0.074 1.04-0.499a0.819 0.819 0 0 0-0.425-1.012l-3.206-1.429c-0.017-0.004-0.027-0.012-0.043-0.016-0.23-0.08-0.475-0.051-0.67 0.055l-2.119 1.294z"></path><path d="M3.368 7.178H0v0.919h2.592v2.615H5.288v2.436h2.613V16h3.437v-0.919H8.822V12.229H6.207v-2.438h-2.691V7.178h-0.148z"></path></g><g id="SvgjsG2470"><path d="M8.43 3.58a1.188 1.188 0 0 0 0-2.372 1.186 1.186 0 0 0 0 2.372"></path><path d="M9.314 3.844h-1.73L4.634 0.894A0.6 0.6 0 0 0 3.78 0.874a0.6 0.6 0 0 0-0.024 0.856l3.08 3.086v10.228a0.664 0.664 0 0 0 1.334 0V9.496h0.54v5.548c0 0.37 0.304 0.668 0.67 0.668 0.368 0 0.664-0.3 0.664-0.668L10.04 4.816 13.12 1.73a0.6 0.6 0 0 0-0.02-0.854 0.6 0.6 0 0 0-0.856 0.02L9.314 3.84z"></path></g><g id="SvgjsG2473"><path d="M1.507 0.867v14.666h12.877V0.867h-12.878z m3.76 12.876H3.087V11.564H5.267v2.179z m0-3.328H3.087V8.236H5.267v2.179z m3.768 3.328H6.856V11.564h2.179v2.179z m0-3.328H6.856V8.236h2.179v2.179z m3.775 3.328H10.631v-5.507h2.179v5.507z m0.08-7.65h-9.78V2.602h9.78V6.093z"></path></g><g id="SvgjsG2467"><path d="M0.045 14.984h15.726V0H0.045v14.984zM1.389 3.404c0-1.105 0.893-2 2.004-2h9.04a2 2 0 0 1 2.002 2V8.838H13.221l-0.751-2.043a0.317 0.317 0 0 0-0.596 0.004c-0.045 0.125-0.212 0.602-0.42 1.194-0.32-1.336-0.993-4.158-0.993-4.158a0.315 0.315 0 0 0-0.326-0.243c-0.155 0.008-0.28 0.126-0.298 0.28s-0.515 4.598-0.664 5.913c-0.269-0.404-0.536-0.808-0.536-0.809a0.318 0.318 0 0 0-0.264-0.139h-1.221a1168.611 1168.611 0 0 0-0.749-2.043 0.32 0.32 0 0 0-0.301-0.206 0.312 0.312 0 0 0-0.294 0.21l-0.424 1.194c-0.319-1.335-0.992-4.158-0.992-4.157a0.317 0.317 0 0 0-0.624 0.037c0-0.001-0.515 4.596-0.664 5.912L2.567 8.977a0.316 0.316 0 0 0-0.263-0.139H1.389V3.404z m11.043 10.332H3.392a2 2 0 0 1-2.003-2.005v-2.261h0.741c0.156 0.233 0.924 1.389 0.924 1.39a0.318 0.318 0 0 0 0.58-0.14c0.016-0.133 0.341-3.034 0.56-4.975 0.366 1.541 0.821 3.439 0.821 3.439 0.031 0.137 0.15 0.236 0.29 0.243 0.142 0.008 0.269-0.079 0.316-0.211 0 0 0.257-0.731 0.487-1.377 0.243 0.661 0.526 1.423 0.526 1.423a0.312 0.312 0 0 0 0.295 0.208h1.271c0.156 0.232 0.925 1.389 0.925 1.389a0.316 0.316 0 0 0 0.337 0.132c0.131-0.03 0.227-0.14 0.241-0.272s0.342-3.034 0.561-4.976c0.366 1.543 0.819 3.44 0.82 3.44 0.032 0.137 0.15 0.236 0.29 0.243 0.142 0.008 0.269-0.079 0.315-0.211 0 0 0.26-0.731 0.488-1.377 0.242 0.661 0.523 1.423 0.523 1.423a0.315 0.315 0 0 0 0.296 0.208h1.436v2.261a2.001 2.001 0 0 1-2 2.003z" fill-rule="evenodd"></path></g><g id="SvgjsG2469"><path d="M8.312 4.802l0 0.521c0.492-0.069 0.443-0.509 0-0.52z m-0.51-0.627V3.715c-0.365 0.064-0.358 0.454 0 0.46z"></path><path d="M8.055 2.506c-1.128 0-2.044 0.915-2.044 2.043 0 1.129 0.915 2.044 2.045 2.044 1.129 0 2.043-0.915 2.043-2.044 0-1.128-0.915-2.043-2.043-2.043z m0.251 3.336v0.364h-0.507v-0.37c-0.29-0.043-0.822-0.323-0.855-0.924h0.534c0.034 0.154 0.078 0.34 0.321 0.409l-0.001-0.605c-0.334-0.048-0.814-0.194-0.814-0.73 0-0.602 0.666-0.789 0.813-0.789v-0.364h0.502v0.364c0.338 0.02 0.83 0.302 0.83 0.84h-0.528c-0.014-0.16-0.137-0.317-0.296-0.327v0.554c0.403 0.041 0.877 0.195 0.877 0.738 0 0.473-0.475 0.818-0.877 0.84z m1.733 5.54c-1.129 0-2.044 0.915-2.043 2.044s0.915 2.043 2.043 2.043 2.043-0.915 2.043-2.043c0-1.129-0.915-2.044-2.043-2.044zM10.955 13.739v0.499h-0.636v0.701h-0.542V14.238h-0.68v-0.49h0.688l-0.894-1.576h0.593l0.551 0.972 0.597-0.972h0.547L10.293 13.739h0.662z m-7.36-4.673c-1.129 0-2.044 0.915-2.043 2.044S2.467 13.154 3.595 13.154s2.044-0.915 2.044-2.044-0.915-2.044-2.044-2.044z m0.065 1.654v0.486h-0.367v1.165H2.773v-1.162h-0.31v-0.484h0.31v-0.436c0-0.168 0.163-0.68 0.777-0.68 0.627 0 0.762 0.494 0.762 0.908h-0.511c0-0.265-0.037-0.404-0.246-0.404-0.226 0-0.262 0.155-0.262 0.4v0.206h0.366z m1.173 0.482c-0.421 0.052-0.516 0.276-0.517 0.554v0.616h-0.516V10.72h0.516v0.258c0.112-0.129 0.241-0.267 0.517-0.267v0.491z"></path><path d="M0 0.56v7.93h9.395c0.178 0.948 1.009 1.666 2.009 1.666s1.83-0.718 2.008-1.666H16V0.56H0z m11.195 7.221h0.464v0.441h-0.378c0.047 0.403-0.185 0.572-0.198 0.707h1.264v0.441H10.456v-0.441c0.215-0.144 0.327-0.508 0.258-0.703h-0.396v-0.448h0.318c-0.086-0.203-0.086-0.27-0.086-0.448s0.147-0.758 0.912-0.754c0.705 0.004 0.91 0.584 0.91 1l-0.537 0c-0.036-0.251-0.135-0.458-0.368-0.458-0.357 0-0.358 0.224-0.357 0.301s0.013 0.262 0.086 0.364z m3.297-0.798h-1.386c-0.366-0.551-0.992-0.914-1.703-0.914S10.067 6.432 9.701 6.982H1.508V2.068h12.984V6.982z"></path></g><g id="SvgjsG2471"><path d="M15.98 13.856L11.694 9.568a6.304 6.304 0 1 0-5.388 3.04 6.26 6.26 0 0 0 3.26-0.914l4.29 4.292L15.98 13.856zM2.406 6.308a3.908 3.908 0 0 1 3.9-3.9 3.906 3.906 0 0 1 3.9 3.9 3.9 3.9 0 0 1-7.8 0z"></path></g><g id="SvgjsG2472"><path d="M7.996 16h-0.001c-2.137-0.001-4.145-0.834-5.655-2.345C0.829 12.142-0.002 10.132 0 7.995-0.002 5.861 0.828 3.853 2.338 2.342 3.848 0.832 5.855 0 7.99 0h0.01C10.136 0 12.146 0.832 13.656 2.342c1.51 1.51 2.342 3.518 2.344 5.653-0.002 2.139-0.835 4.148-2.346 5.66-1.512 1.511-3.521 2.344-5.658 2.345z m-0.006-14.161c-1.644 0-3.189 0.64-4.351 1.804-1.162 1.163-1.801 2.708-1.8 4.352-0.001 1.648 0.639 3.196 1.802 4.359 1.163 1.164 2.709 1.805 4.354 1.807 3.398-0.002 6.163-2.768 6.167-6.166-0.002-3.394-2.765-6.155-6.16-6.155h-0.01z"></path><path d="M8.692 7.143V5.35c0.511 0.037 0.91 0.544 0.957 1.062h1.697c0.002-1.741-1.581-2.657-2.672-2.724v-1.175H7.056v1.175c-0.476 0.004-2.622 0.611-2.62 2.558-0.003 1.733 1.545 2.206 2.62 2.358v1.959c-0.783-0.222-0.926-0.824-1.036-1.323h-1.723c0.11 1.949 1.823 2.856 2.759 2.995v1.202h1.636v-1.184c1.294-0.07 2.827-1.187 2.829-2.716-0.002-1.758-1.529-2.256-2.829-2.393zM7.064 6.855c-1.152-0.018-1.175-1.281 0-1.488v1.488z m1.645 3.717V8.883c1.427 0.039 1.586 1.462 0 1.689z"></path></g><g id="SvgjsG2476"><use xlink:href="#SvgjsG2466" transform="translate(0, 0) scale(0.8)" fill="rgba(160, 181, 223, 0.2)"></use><use xlink:href="#SvgjsG2467" transform="translate(0, 44.800000000000004) scale(0.8)" fill="rgba(160, 181, 223, 0.2)"></use><use xlink:href="#SvgjsG2466" transform="translate(0, 89.60000000000001) scale(0.8)" fill="rgba(160, 181, 223, 0.2)"></use><use xlink:href="#SvgjsG2468" transform="translate(0, 134.4) scale(0.8)" fill="rgba(160, 181, 223, 0.2)"></use><use xlink:href="#SvgjsG2468" transform="translate(0, 179.20000000000002) scale(0.8)" fill="rgba(160, 181, 223, 0.2)"></use><use xlink:href="#SvgjsG2469" transform="translate(0, 224.00000000000003) scale(0.8)" fill="rgba(160, 181, 223, 0.2)"></use><use xlink:href="#SvgjsG2470" transform="translate(0, 268.8) scale(0.8)" fill="rgba(160, 181, 223, 0.2)"></use><use xlink:href="#SvgjsG2467" transform="translate(0, 313.6) scale(0.8)" fill="rgba(160, 181, 223, 0.2)"></use><use xlink:href="#SvgjsG2471" transform="translate(0, 358.40000000000003) scale(0.8)" fill="rgba(160, 181, 223, 0.2)"></use><use xlink:href="#SvgjsG2470" transform="translate(0, 403.20000000000005) scale(0.8)" fill="rgba(160, 181, 223, 0.2)"></use><use xlink:href="#SvgjsG2466" transform="translate(44.800000000000004, 0) scale(0.8)" fill="rgba(160, 181, 223, 0.2)"></use><use xlink:href="#SvgjsG2468" transform="translate(44.800000000000004, 44.800000000000004) scale(0.8)" fill="rgba(160, 181, 223, 0.2)"></use><use xlink:href="#SvgjsG2467" transform="translate(44.800000000000004, 89.60000000000001) scale(0.8)" fill="rgba(160, 181, 223, 0.2)"></use><use xlink:href="#SvgjsG2466" transform="translate(44.800000000000004, 134.4) scale(0.8)" fill="rgba(160, 181, 223, 0.2)"></use><use xlink:href="#SvgjsG2472" transform="translate(44.800000000000004, 179.20000000000002) scale(0.8)" fill="rgba(160, 181, 223, 0.2)"></use><use xlink:href="#SvgjsG2469" transform="translate(44.800000000000004, 224.00000000000003) scale(0.8)" fill="rgba(160, 181, 223, 0.2)"></use><use xlink:href="#SvgjsG2468" transform="translate(44.800000000000004, 268.8) scale(0.8)" fill="rgba(160, 181, 223, 0.2)"></use><use xlink:href="#SvgjsG2466" transform="translate(44.800000000000004, 313.6) scale(0.8)" fill="rgba(160, 181, 223, 0.2)"></use><use xlink:href="#SvgjsG2468" transform="translate(44.800000000000004, 358.40000000000003) scale(0.8)" fill="rgba(160, 181, 223, 0.2)"></use><use xlink:href="#SvgjsG2467" transform="translate(44.800000000000004, 403.20000000000005) scale(0.8)" fill="rgba(160, 181, 223, 0.2)"></use><use xlink:href="#SvgjsG2467" transform="translate(89.60000000000001, 0) scale(0.8)" fill="rgba(160, 181, 223, 0.2)"></use><use xlink:href="#SvgjsG2473" transform="translate(89.60000000000001, 44.800000000000004) scale(0.8)" fill="rgba(160, 181, 223, 0.2)"></use><use xlink:href="#SvgjsG2470" transform="translate(89.60000000000001, 89.60000000000001) scale(0.8)" fill="rgba(160, 181, 223, 0.2)"></use><use xlink:href="#SvgjsG2471" transform="translate(89.60000000000001, 134.4) scale(0.8)" fill="rgba(160, 181, 223, 0.2)"></use><use xlink:href="#SvgjsG2469" transform="translate(89.60000000000001, 179.20000000000002) scale(0.8)" fill="rgba(160, 181, 223, 0.2)"></use><use xlink:href="#SvgjsG2468" transform="translate(89.60000000000001, 224.00000000000003) scale(0.8)" fill="rgba(160, 181, 223, 0.2)"></use><use xlink:href="#SvgjsG2471" transform="translate(89.60000000000001, 268.8) scale(0.8)" fill="rgba(160, 181, 223, 0.2)"></use><use xlink:href="#SvgjsG2474" transform="translate(89.60000000000001, 313.6) scale(0.8)" fill="rgba(160, 181, 223, 0.2)"></use><use xlink:href="#SvgjsG2466" transform="translate(89.60000000000001, 358.40000000000003) scale(0.8)" fill="rgba(160, 181, 223, 0.2)"></use><use xlink:href="#SvgjsG2470" transform="translate(89.60000000000001, 403.20000000000005) scale(0.8)" fill="rgba(160, 181, 223, 0.2)"></use><use xlink:href="#SvgjsG2472" transform="translate(134.4, 0) scale(0.8)" fill="rgba(160, 181, 223, 0.2)"></use><use xlink:href="#SvgjsG2472" transform="translate(134.4, 44.800000000000004) scale(0.8)" fill="rgba(160, 181, 223, 0.2)"></use><use xlink:href="#SvgjsG2466" transform="translate(134.4, 89.60000000000001) scale(0.8)" fill="rgba(160, 181, 223, 0.2)"></use><use xlink:href="#SvgjsG2474" transform="translate(134.4, 134.4) scale(0.8)" fill="rgba(160, 181, 223, 0.2)"></use><use xlink:href="#SvgjsG2471" transform="translate(134.4, 179.20000000000002) scale(0.8)" fill="rgba(160, 181, 223, 0.2)"></use><use xlink:href="#SvgjsG2468" transform="translate(134.4, 224.00000000000003) scale(0.8)" fill="rgba(160, 181, 223, 0.2)"></use><use xlink:href="#SvgjsG2469" transform="translate(134.4, 268.8) scale(0.8)" fill="rgba(160, 181, 223, 0.2)"></use><use xlink:href="#SvgjsG2468" transform="translate(134.4, 313.6) scale(0.8)" fill="rgba(160, 181, 223, 0.2)"></use><use xlink:href="#SvgjsG2474" transform="translate(134.4, 358.40000000000003) scale(0.8)" fill="rgba(160, 181, 223, 0.2)"></use><use xlink:href="#SvgjsG2468" transform="translate(134.4, 403.20000000000005) scale(0.8)" fill="rgba(160, 181, 223, 0.2)"></use><use xlink:href="#SvgjsG2475" transform="translate(179.20000000000002, 0) scale(0.8)" fill="rgba(160, 181, 223, 0.2)"></use><use xlink:href="#SvgjsG2475" transform="translate(179.20000000000002, 44.800000000000004) scale(0.8)" fill="rgba(160, 181, 223, 0.2)"></use><use xlink:href="#SvgjsG2469" transform="translate(179.20000000000002, 89.60000000000001) scale(0.8)" fill="rgba(160, 181, 223, 0.2)"></use><use xlink:href="#SvgjsG2473" transform="translate(179.20000000000002, 134.4) scale(0.8)" fill="rgba(160, 181, 223, 0.2)"></use><use xlink:href="#SvgjsG2470" transform="translate(179.20000000000002, 179.20000000000002) scale(0.8)" fill="rgba(160, 181, 223, 0.2)"></use><use xlink:href="#SvgjsG2469" transform="translate(179.20000000000002, 224.00000000000003) scale(0.8)" fill="rgba(160, 181, 223, 0.2)"></use><use xlink:href="#SvgjsG2468" transform="translate(179.20000000000002, 268.8) scale(0.8)" fill="rgba(160, 181, 223, 0.2)"></use><use xlink:href="#SvgjsG2471" transform="translate(179.20000000000002, 313.6) scale(0.8)" fill="rgba(160, 181, 223, 0.2)"></use><use xlink:href="#SvgjsG2467" transform="translate(179.20000000000002, 358.40000000000003) scale(0.8)" fill="rgba(160, 181, 223, 0.2)"></use><use xlink:href="#SvgjsG2473" transform="translate(179.20000000000002, 403.20000000000005) scale(0.8)" fill="rgba(160, 181, 223, 0.2)"></use><use xlink:href="#SvgjsG2468" transform="translate(224.00000000000003, 0) scale(0.8)" fill="rgba(160, 181, 223, 0.2)"></use><use xlink:href="#SvgjsG2472" transform="translate(224.00000000000003, 44.800000000000004) scale(0.8)" fill="rgba(160, 181, 223, 0.2)"></use><use xlink:href="#SvgjsG2469" transform="translate(224.00000000000003, 89.60000000000001) scale(0.8)" fill="rgba(160, 181, 223, 0.2)"></use><use xlink:href="#SvgjsG2473" transform="translate(224.00000000000003, 134.4) scale(0.8)" fill="rgba(160, 181, 223, 0.2)"></use><use xlink:href="#SvgjsG2472" transform="translate(224.00000000000003, 179.20000000000002) scale(0.8)" fill="rgba(160, 181, 223, 0.2)"></use><use xlink:href="#SvgjsG2472" transform="translate(224.00000000000003, 224.00000000000003) scale(0.8)" fill="rgba(160, 181, 223, 0.2)"></use><use xlink:href="#SvgjsG2474" transform="translate(224.00000000000003, 268.8) scale(0.8)" fill="rgba(160, 181, 223, 0.2)"></use><use xlink:href="#SvgjsG2475" transform="translate(224.00000000000003, 313.6) scale(0.8)" fill="rgba(160, 181, 223, 0.2)"></use><use xlink:href="#SvgjsG2467" transform="translate(224.00000000000003, 358.40000000000003) scale(0.8)" fill="rgba(160, 181, 223, 0.2)"></use><use xlink:href="#SvgjsG2468" transform="translate(224.00000000000003, 403.20000000000005) scale(0.8)" fill="rgba(160, 181, 223, 0.2)"></use><use xlink:href="#SvgjsG2467" transform="translate(268.8, 0) scale(0.8)" fill="rgba(160, 181, 223, 0.2)"></use><use xlink:href="#SvgjsG2472" transform="translate(268.8, 44.800000000000004) scale(0.8)" fill="rgba(160, 181, 223, 0.2)"></use><use xlink:href="#SvgjsG2470" transform="translate(268.8, 89.60000000000001) scale(0.8)" fill="rgba(160, 181, 223, 0.2)"></use><use xlink:href="#SvgjsG2472" transform="translate(268.8, 134.4) scale(0.8)" fill="rgba(160, 181, 223, 0.2)"></use><use xlink:href="#SvgjsG2471" transform="translate(268.8, 179.20000000000002) scale(0.8)" fill="rgba(160, 181, 223, 0.2)"></use><use xlink:href="#SvgjsG2473" transform="translate(268.8, 224.00000000000003) scale(0.8)" fill="rgba(160, 181, 223, 0.2)"></use><use xlink:href="#SvgjsG2467" transform="translate(268.8, 268.8) scale(0.8)" fill="rgba(160, 181, 223, 0.2)"></use><use xlink:href="#SvgjsG2466" transform="translate(268.8, 313.6) scale(0.8)" fill="rgba(160, 181, 223, 0.2)"></use><use xlink:href="#SvgjsG2467" transform="translate(268.8, 358.40000000000003) scale(0.8)" fill="rgba(160, 181, 223, 0.2)"></use><use xlink:href="#SvgjsG2471" transform="translate(268.8, 403.20000000000005) scale(0.8)" fill="rgba(160, 181, 223, 0.2)"></use><use xlink:href="#SvgjsG2472" transform="translate(313.6, 0) scale(0.8)" fill="rgba(160, 181, 223, 0.2)"></use><use xlink:href="#SvgjsG2469" transform="translate(313.6, 44.800000000000004) scale(0.8)" fill="rgba(160, 181, 223, 0.2)"></use><use xlink:href="#SvgjsG2469" transform="translate(313.6, 89.60000000000001) scale(0.8)" fill="rgba(160, 181, 223, 0.2)"></use><use xlink:href="#SvgjsG2469" transform="translate(313.6, 134.4) scale(0.8)" fill="rgba(160, 181, 223, 0.2)"></use><use xlink:href="#SvgjsG2466" transform="translate(313.6, 179.20000000000002) scale(0.8)" fill="rgba(160, 181, 223, 0.2)"></use><use xlink:href="#SvgjsG2475" transform="translate(313.6, 224.00000000000003) scale(0.8)" fill="rgba(160, 181, 223, 0.2)"></use><use xlink:href="#SvgjsG2475" transform="translate(313.6, 268.8) scale(0.8)" fill="rgba(160, 181, 223, 0.2)"></use><use xlink:href="#SvgjsG2475" transform="translate(313.6, 313.6) scale(0.8)" fill="rgba(160, 181, 223, 0.2)"></use><use xlink:href="#SvgjsG2475" transform="translate(313.6, 358.40000000000003) scale(0.8)" fill="rgba(160, 181, 223, 0.2)"></use><use xlink:href="#SvgjsG2473" transform="translate(313.6, 403.20000000000005) scale(0.8)" fill="rgba(160, 181, 223, 0.2)"></use><use xlink:href="#SvgjsG2468" transform="translate(358.40000000000003, 0) scale(0.8)" fill="rgba(160, 181, 223, 0.2)"></use><use xlink:href="#SvgjsG2468" transform="translate(358.40000000000003, 44.800000000000004) scale(0.8)" fill="rgba(160, 181, 223, 0.2)"></use><use xlink:href="#SvgjsG2475" transform="translate(358.40000000000003, 89.60000000000001) scale(0.8)" fill="rgba(160, 181, 223, 0.2)"></use><use xlink:href="#SvgjsG2469" transform="translate(358.40000000000003, 134.4) scale(0.8)" fill="rgba(160, 181, 223, 0.2)"></use><use xlink:href="#SvgjsG2466" transform="translate(358.40000000000003, 179.20000000000002) scale(0.8)" fill="rgba(160, 181, 223, 0.2)"></use><use xlink:href="#SvgjsG2473" transform="translate(358.40000000000003, 224.00000000000003) scale(0.8)" fill="rgba(160, 181, 223, 0.2)"></use><use xlink:href="#SvgjsG2466" transform="translate(358.40000000000003, 268.8) scale(0.8)" fill="rgba(160, 181, 223, 0.2)"></use><use xlink:href="#SvgjsG2474" transform="translate(358.40000000000003, 313.6) scale(0.8)" fill="rgba(160, 181, 223, 0.2)"></use><use xlink:href="#SvgjsG2467" transform="translate(358.40000000000003, 358.40000000000003) scale(0.8)" fill="rgba(160, 181, 223, 0.2)"></use><use xlink:href="#SvgjsG2468" transform="translate(358.40000000000003, 403.20000000000005) scale(0.8)" fill="rgba(160, 181, 223, 0.2)"></use><use xlink:href="#SvgjsG2469" transform="translate(403.20000000000005, 0) scale(0.8)" fill="rgba(160, 181, 223, 0.2)"></use><use xlink:href="#SvgjsG2470" transform="translate(403.20000000000005, 44.800000000000004) scale(0.8)" fill="rgba(160, 181, 223, 0.2)"></use><use xlink:href="#SvgjsG2475" transform="translate(403.20000000000005, 89.60000000000001) scale(0.8)" fill="rgba(160, 181, 223, 0.2)"></use><use xlink:href="#SvgjsG2473" transform="translate(403.20000000000005, 134.4) scale(0.8)" fill="rgba(160, 181, 223, 0.2)"></use><use xlink:href="#SvgjsG2474" transform="translate(403.20000000000005, 179.20000000000002) scale(0.8)" fill="rgba(160, 181, 223, 0.2)"></use><use xlink:href="#SvgjsG2472" transform="translate(403.20000000000005, 224.00000000000003) scale(0.8)" fill="rgba(160, 181, 223, 0.2)"></use><use xlink:href="#SvgjsG2470" transform="translate(403.20000000000005, 268.8) scale(0.8)" fill="rgba(160, 181, 223, 0.2)"></use><use xlink:href="#SvgjsG2475" transform="translate(403.20000000000005, 313.6) scale(0.8)" fill="rgba(160, 181, 223, 0.2)"></use><use xlink:href="#SvgjsG2466" transform="translate(403.20000000000005, 358.40000000000003) scale(0.8)" fill="rgba(160, 181, 223, 0.2)"></use><use xlink:href="#SvgjsG2468" transform="translate(403.20000000000005, 403.20000000000005) scale(0.8)" fill="rgba(160, 181, 223, 0.2)"></use></g></defs></svg>