<svg id="Layer_1" enable-background="new 0 0 512 512" viewBox="0 0 512 512" xmlns="http://www.w3.org/2000/svg"><g><g><g fill="#b3e59f"><path d="m8 383.207c0 16.277 18.39 25.778 31.548 16.248 25.294-18.319 63.89-39.131 108.695-39.131 107.757 0 132.692 58.618 213.137 66.393 65.802 6.359 108.641-21.326 128.918-39.154 8.701-7.651 13.702-18.675 13.702-30.279v-191.359c0-15.947-17.65-25.396-30.953-16.659-23.605 15.503-60.766 30.955-111.666 26.036-80.445-7.774-105.38-66.393-213.137-66.393-57.176 0-104.24 33.891-126.455 53.245-8.767 7.637-13.789 18.709-13.789 30.353z"></path><path d="m8 383.207c0 16.277 18.39 25.778 31.548 16.248 25.294-18.319 63.89-39.131 108.695-39.131 107.757 0 132.692 58.618 213.137 66.393 65.802 6.359 108.641-21.326 128.918-39.154 8.701-7.651 13.702-18.675 13.702-30.279v-191.359c0-15.947-17.65-25.396-30.953-16.659-23.605 15.503-60.766 30.955-111.666 26.036-80.445-7.774-105.38-66.393-213.137-66.393-57.176 0-104.24 33.891-126.455 53.245-8.767 7.637-13.789 18.709-13.789 30.353z"></path><path d="m8 383.207c0 16.277 18.39 25.778 31.548 16.248 25.294-18.319 63.89-39.131 108.695-39.131 107.757 0 132.692 58.618 213.137 66.393 65.802 6.359 108.641-21.326 128.918-39.154 8.701-7.651 13.702-18.675 13.702-30.279v-191.359c0-15.947-17.65-25.396-30.953-16.659-23.605 15.503-60.766 30.955-111.666 26.036-80.445-7.774-105.38-66.393-213.137-66.393-57.176 0-104.24 33.891-126.455 53.245-8.767 7.637-13.789 18.709-13.789 30.353z"></path></g><path d="m490.298 369.562c-20.276 17.828-63.116 45.514-128.918 39.154-80.445-7.775-105.38-66.393-213.137-66.393-44.805 0-83.4 20.812-108.695 39.131-13.158 9.531-31.548.03-31.548-16.247v18c0 16.277 18.39 25.778 31.548 16.248 25.294-18.319 63.89-39.131 108.695-39.131 107.757 0 132.692 58.618 213.137 66.393 65.802 6.359 108.641-21.326 128.918-39.154 8.701-7.651 13.702-18.675 13.702-30.279v-18c0 11.603-5.001 22.627-13.702 30.278z" fill="#95d6a4"></path><path d="m433.577 365.54c0-17.321 14.002-31.362 31.275-31.362v-102.577c-13.792 0-25.491-8.957-29.649-21.383-20.146 6.702-44.735 10.55-73.823 7.739-80.445-7.775-105.38-69.894-213.138-69.894-26.997 0-51.732 7.958-72.667 18.501 1.823 3.98 2.847 8.405 2.847 13.071 0 17.321-14.002 31.362-31.275 31.362v102.576c13.697 0 25.33 8.833 29.562 21.126 20.691-9.745 45.023-17.031 71.533-17.031 107.757 0 132.692 58.618 213.138 66.393 29.205 2.823 53.876-1.067 74.067-7.819-1.209-3.34-1.87-6.944-1.87-10.702z" fill="#78c2a4"></path><ellipse cx="265.437" cy="266.527" fill="#eef3f9" rx="41.256" ry="43.306"></ellipse><path d="m265.437 291.833c-19.844 0-36.41-14.709-40.357-34.306-.585 2.904-.898 5.913-.898 9 0 23.917 18.471 43.306 41.256 43.306s41.256-19.389 41.256-43.306c0-3.087-.313-6.096-.898-9-3.948 19.597-20.515 34.306-40.359 34.306z" fill="#dae3ed"></path><path d="m220.722 119.773c31.043 10.152 53.913 25.516 79.283 37.647 13.185-23.513 26.799-63.385-5.82-96.095l-50.359-50.499c-4.405-4.417-11.742-3.529-15.023 1.781-6.698 10.838-14.346 29.561-4.861 49.64 0 0-33.722 24.736-3.22 57.526z" fill="#f5de8e"></path><path d="m208.586 98.197c1.344 6.602 4.964 13.866 12.135 21.576 31.043 10.152 53.913 25.516 79.283 37.647 2.46-4.388 4.936-9.346 7.123-14.72-31.594-13.962-57.992-33.899-98.541-44.503z" fill="#edd17a"></path><path d="m216.381 369.817c-1.468 13.176 4.534 22.198 4.534 22.198-30.847 32.896 3.026 57.738 3.026 57.738-9.485 20.079-1.837 38.802 4.861 49.64 3.281 5.31 10.618 6.199 15.023 1.781l50.359-50.499c11.394-11.426 17.136-23.725 19.236-35.896-32.36-13.111-58.261-33.199-97.039-44.962z" fill="#f5de8e"></path><path d="m219.193 388.686c35.254 11.233 59.916 29.255 89.238 41.999 2.466-5.271 4.074-10.6 4.99-15.905-32.361-13.112-58.262-33.199-97.04-44.963-.936 8.407 1.166 15.109 2.812 18.869z" fill="#edd17a"></path></g><g><path d="m73.247 370.769c-13.073 6.15-26.036 13.856-38.53 22.906-3.827 2.773-8.63 3.142-12.85.988-4.281-2.186-6.837-6.367-6.837-11.184v-191.111c0-9.508 4.095-18.529 11.236-24.752 9.705-8.456 25.407-20.712 45.104-31.079 3.673-1.933 5.083-6.478 3.151-10.152-1.933-3.673-6.477-5.085-10.15-3.151-20.979 11.042-37.67 24.067-47.977 33.048-10.419 9.078-16.394 22.231-16.394 36.086v191.112c0 10.422 5.76 19.838 15.033 24.573 9.17 4.688 20.107 3.879 28.499-2.202 11.735-8.501 23.884-15.727 36.11-21.477 3.755-1.767 5.368-6.244 3.602-10-1.765-3.759-6.242-5.37-9.997-3.605z"></path><path d="m497.58 141.509c-8.92-4.815-19.738-4.338-28.234 1.242-21.334 14.014-57.221 29.71-107.036 24.893-20.026-1.936-36.53-7.192-51.885-13.959 18.551-37.749 14.813-72.356-10.845-98.09l-50.457-50.608c-7.414-7.836-21.347-6.176-26.767 3.142-10.591 17.144-13.157 35.255-7.444 51.609-5.194 5.146-13.144 15.041-14.399 28.308-.6 6.35.374 12.638 2.891 18.821-15.965-3.604-34.072-5.793-55.372-5.793-18.09 0-36.618 3.254-55.068 9.673-3.92 1.364-5.992 5.648-4.629 9.569 1.364 3.921 5.649 5.994 9.567 4.63 16.859-5.865 33.725-8.838 50.13-8.838 58.687 0 92.036 17.899 124.288 35.208 25.399 13.632 51.663 27.728 88.544 31.293 6.788.656 13.334.96 19.65.96 44.091-.002 76.656-14.833 97.083-28.251 7.898-5.604 19.718.714 19.374 10.412v191.77c0 9.451-4.073 18.454-11.177 24.7-18.877 16.602-60.024 43.539-123.484 37.402-33.879-3.275-57.682-16.05-82.883-29.576-33.888-18.188-68.93-36.995-131.394-36.995-14.982 0-30.32 2.238-45.587 6.652-3.987 1.153-6.285 5.32-5.132 9.308 1.152 3.988 5.316 6.285 9.306 5.133 13.91-4.022 27.842-6.061 41.412-6.061 23.815 0 43.457 2.948 60.547 7.607.201 6.531 1.785 11.855 3.289 15.492-8.579 10.552-12.401 21.536-11.366 32.711 1.232 13.306 9.204 23.229 14.41 28.385-5.712 16.353-3.146 34.466 7.445 51.609 5.428 9.309 19.318 10.99 26.766 3.141l50.457-50.608c9.284-9.311 15.733-19.795 19.259-31.253 12.59 4.477 26.345 7.9 42.024 9.416 6.812.658 13.389.965 19.732.965 58.013 0 96.46-25.628 115.122-42.041 10.348-9.097 16.283-22.215 16.283-35.987v-191.771c0-10.292-5.391-19.347-14.42-24.22zm-200.737 5.72c-5.825-2.942-11.584-6.03-17.417-9.161-16.839-9.037-33.966-18.225-54.597-25.185-6.894-7.905-10.044-15.742-9.363-23.316 1.151-12.787 12.767-21.611 12.857-21.679 2.902-2.129 3.887-6.016 2.35-9.271-7.821-16.56-1.887-32.299 4.468-42.586 1.075-1.324 2.061-1.418 3.34-.429l50.458 50.608c14.871 14.916 27.775 40.875 7.904 81.019zm-7.905 298.559-50.458 50.608c-1.275.99-2.265.894-3.339-.429-6.356-10.287-12.29-26.026-4.469-42.586 1.537-3.255.552-7.143-2.35-9.271-.117-.086-11.677-8.897-12.856-21.621-.752-8.125 2.902-16.549 10.861-25.039 2.387-2.545 2.747-6.339.815-9.245-.029-.044-1.812-2.907-2.84-7.553 17.854 6.438 33.056 14.591 48.017 22.621 10.456 5.612 21.061 11.301 32.491 16.303-2.727 9.561-8.042 18.359-15.872 26.212z"></path><path d="m465.261 341.861c4.15 0 7.515-3.365 7.515-7.516v-102.798c0-4.151-3.365-7.516-7.515-7.516-10.245 0-19.319-6.55-22.581-16.298-1.315-3.932-5.564-6.055-9.499-4.747-22.03 7.331-45.874 9.822-70.872 7.406-33.904-3.277-57.743-16.776-82.981-31.068-32.292-18.286-68.892-39.012-131.296-39.012-25.071 0-50.705 6.508-76.189 19.344-3.611 1.819-5.136 6.168-3.453 9.843 1.44 3.144 2.171 6.499 2.171 9.969 0 13.186-10.687 23.914-23.822 23.914-4.15 0-7.515 3.365-7.515 7.516v102.798c0 4.151 3.364 7.516 7.515 7.516 10.152 0 19.2 6.472 22.515 16.103 1.322 4.14 6.419 6.293 10.307 4.353 23.034-10.85 46.071-16.352 68.471-16.352 58.687 0 92.036 17.898 124.287 35.208 18.169 9.751 36.956 19.834 59.397 25.966 4.004 1.095 8.136-1.265 9.229-5.27 1.094-4.005-1.265-8.138-5.268-9.231-20.798-5.682-38.019-14.925-56.251-24.711-33.888-18.188-68.929-36.994-131.394-36.994-22.39 0-45.243 4.944-68.035 14.708-5.646-9.37-15.012-15.958-25.744-18.078v-89.23c17.839-3.519 31.337-19.317 31.337-38.215 0-3.143-.368-6.228-1.1-9.229 21.4-9.888 42.745-14.895 63.541-14.895 58.445 0 91.716 18.841 123.892 37.061 25.495 14.436 51.857 29.365 88.94 32.949 24.673 2.385 48.376.338 70.564-6.084 5.568 9.903 15.196 16.873 26.319 19.062v89.227c-17.838 3.519-31.337 19.317-31.337 38.215 0 1.9.136 3.784.406 5.644-19.711 5.643-40.792 7.526-62.766 5.597-4.131-.366-7.78 2.694-8.143 6.83-.363 4.135 2.694 7.781 6.829 8.145 6.014.528 11.968.792 17.857.792 20.076 0 39.383-3.064 57.59-9.154 3.92-1.224 6.159-5.854 4.682-9.687-.946-2.612-1.425-5.36-1.425-8.166 0-13.187 10.687-23.915 23.822-23.915z"></path><path d="m216.605 266.548c0 28.075 21.914 50.916 48.851 50.916s48.851-22.841 48.851-50.916-21.914-50.917-48.851-50.917c-26.937.001-48.851 22.842-48.851 50.917zm82.672 0c0 19.786-15.172 35.883-33.822 35.883-18.649 0-33.821-16.097-33.821-35.883s15.172-35.884 33.821-35.884c18.65 0 33.822 16.098 33.822 35.884z"></path></g></g></svg>